<mxfile host="app.diagrams.net" agent="Mozilla/5.0 (Windows NT 10.0; Win64; x64; rv:126.0) Gecko/20100101 Firefox/126.0" version="24.7.5">
  <diagram name="Page-1" id="Unj4caeVXRfdDgIOqh6u">
    <mxGraphModel dx="1514" dy="679" grid="0" gridSize="10" guides="1" tooltips="1" connect="1" arrows="1" fold="1" page="0" pageScale="1" pageWidth="850" pageHeight="1100" math="0" shadow="0">
      <root>
        <mxCell id="0" />
        <mxCell id="1" parent="0" />
        <mxCell id="Qom0i0TMoexOEmFyuF5C-15" style="edgeStyle=orthogonalEdgeStyle;rounded=0;orthogonalLoop=1;jettySize=auto;html=1;entryX=0.5;entryY=0;entryDx=0;entryDy=0;" parent="1" source="Qom0i0TMoexOEmFyuF5C-3" target="Qom0i0TMoexOEmFyuF5C-4" edge="1">
          <mxGeometry relative="1" as="geometry" />
        </mxCell>
        <mxCell id="Qom0i0TMoexOEmFyuF5C-3" value="Main" style="rounded=1;whiteSpace=wrap;html=1;align=center;fontStyle=2" parent="1" vertex="1">
          <mxGeometry x="300" y="10" width="120" height="60" as="geometry" />
        </mxCell>
        <mxCell id="Qom0i0TMoexOEmFyuF5C-16" style="edgeStyle=orthogonalEdgeStyle;rounded=0;orthogonalLoop=1;jettySize=auto;html=1;entryX=0.5;entryY=0;entryDx=0;entryDy=0;" parent="1" source="Qom0i0TMoexOEmFyuF5C-4" target="Qom0i0TMoexOEmFyuF5C-6" edge="1">
          <mxGeometry relative="1" as="geometry" />
        </mxCell>
        <mxCell id="OALr1In9JxHl_P9QOc-F-3" style="edgeStyle=orthogonalEdgeStyle;rounded=0;orthogonalLoop=1;jettySize=auto;html=1;" parent="1" source="Qom0i0TMoexOEmFyuF5C-4" target="OALr1In9JxHl_P9QOc-F-1" edge="1">
          <mxGeometry relative="1" as="geometry" />
        </mxCell>
        <mxCell id="Qom0i0TMoexOEmFyuF5C-4" value="displayMenu" style="rounded=1;whiteSpace=wrap;html=1;" parent="1" vertex="1">
          <mxGeometry x="140" y="40" width="120" height="50" as="geometry" />
        </mxCell>
        <mxCell id="Qom0i0TMoexOEmFyuF5C-6" value="&lt;div&gt;processOption&lt;/div&gt;" style="rounded=1;whiteSpace=wrap;html=1;" parent="1" vertex="1">
          <mxGeometry x="142.5" y="130" width="115" height="40" as="geometry" />
        </mxCell>
        <mxCell id="Qom0i0TMoexOEmFyuF5C-8" value="init2DArray&lt;br&gt;&lt;div&gt;display2DArray&lt;/div&gt;&lt;div&gt;deallocateMemory&lt;/div&gt;&lt;div&gt;tokenizeString&lt;/div&gt;&lt;div&gt;readConfig&lt;/div&gt;&lt;div&gt;readAFile&lt;/div&gt;&lt;div&gt;&lt;br&gt;&lt;/div&gt;" style="rounded=1;whiteSpace=wrap;html=1;" parent="1" vertex="1">
          <mxGeometry x="480" y="10" width="120" height="110" as="geometry" />
        </mxCell>
        <mxCell id="Qom0i0TMoexOEmFyuF5C-24" style="edgeStyle=orthogonalEdgeStyle;rounded=0;orthogonalLoop=1;jettySize=auto;html=1;entryX=0.5;entryY=0;entryDx=0;entryDy=0;" parent="1" source="Qom0i0TMoexOEmFyuF5C-10" target="Qom0i0TMoexOEmFyuF5C-11" edge="1">
          <mxGeometry relative="1" as="geometry" />
        </mxCell>
        <mxCell id="Qom0i0TMoexOEmFyuF5C-10" value="&lt;div&gt;parseCityData&lt;/div&gt;&lt;div&gt;determineCitySizes&lt;/div&gt;&lt;div&gt;parseCloudData&lt;/div&gt;&lt;div&gt;ParsePressureData&lt;br&gt;&lt;/div&gt;" style="rounded=1;whiteSpace=wrap;html=1;" parent="1" vertex="1">
          <mxGeometry x="670" y="40" width="140" height="70" as="geometry" />
        </mxCell>
        <mxCell id="Qom0i0TMoexOEmFyuF5C-11" value="&lt;div&gt;setValueAt&lt;/div&gt;&lt;div&gt;setvalueLMH&lt;/div&gt;&lt;div&gt;populatewithCityData&lt;/div&gt;&lt;div&gt;populateWithCloudIndexData&lt;/div&gt;&lt;div&gt;populateWithCloudLMHData&lt;/div&gt;&lt;div&gt;&lt;div&gt;populateWithPressureIndexData&lt;/div&gt;&lt;div&gt;populateWithPressureLMHData&lt;/div&gt;&lt;/div&gt;" style="rounded=1;whiteSpace=wrap;html=1;" parent="1" vertex="1">
          <mxGeometry x="550" y="180" width="230" height="110" as="geometry" />
        </mxCell>
        <mxCell id="Qom0i0TMoexOEmFyuF5C-26" style="edgeStyle=orthogonalEdgeStyle;rounded=0;orthogonalLoop=1;jettySize=auto;html=1;entryX=0.75;entryY=0;entryDx=0;entryDy=0;" parent="1" source="Qom0i0TMoexOEmFyuF5C-13" target="Qom0i0TMoexOEmFyuF5C-14" edge="1">
          <mxGeometry relative="1" as="geometry" />
        </mxCell>
        <mxCell id="Qom0i0TMoexOEmFyuF5C-13" value="&lt;div&gt;extractCoordinates&lt;/div&gt;&lt;div&gt;probRain&lt;/div&gt;&lt;div&gt;calculateTotals&lt;/div&gt;&lt;div&gt;getSurrounding&lt;/div&gt;&lt;div&gt;getSurrounding3x3&lt;br&gt;&lt;/div&gt;&lt;div&gt;calculateSurround1x1&lt;/div&gt;&lt;div&gt;calculateSurrounding2x2&lt;/div&gt;&lt;div&gt;calculateSurrounding3x3&lt;br&gt;&lt;/div&gt;" style="rounded=1;whiteSpace=wrap;html=1;" parent="1" vertex="1">
          <mxGeometry x="260" y="180" width="240" height="130" as="geometry" />
        </mxCell>
        <mxCell id="Qom0i0TMoexOEmFyuF5C-14" value="&lt;div&gt;displaySCsummary&lt;/div&gt;&lt;div&gt;displayMCsummary&lt;/div&gt;&lt;div&gt;displayBCsummary&lt;br&gt;&lt;/div&gt;" style="rounded=1;whiteSpace=wrap;html=1;" parent="1" vertex="1">
          <mxGeometry x="290" y="380" width="120" height="50" as="geometry" />
        </mxCell>
        <mxCell id="Qom0i0TMoexOEmFyuF5C-22" style="edgeStyle=orthogonalEdgeStyle;rounded=0;orthogonalLoop=1;jettySize=auto;html=1;entryX=0;entryY=0.327;entryDx=0;entryDy=0;entryPerimeter=0;" parent="1" source="Qom0i0TMoexOEmFyuF5C-3" target="Qom0i0TMoexOEmFyuF5C-8" edge="1">
          <mxGeometry relative="1" as="geometry" />
        </mxCell>
        <mxCell id="Qom0i0TMoexOEmFyuF5C-23" style="edgeStyle=orthogonalEdgeStyle;rounded=0;orthogonalLoop=1;jettySize=auto;html=1;entryX=0;entryY=0.357;entryDx=0;entryDy=0;entryPerimeter=0;" parent="1" source="Qom0i0TMoexOEmFyuF5C-8" target="Qom0i0TMoexOEmFyuF5C-10" edge="1">
          <mxGeometry relative="1" as="geometry" />
        </mxCell>
        <mxCell id="Qom0i0TMoexOEmFyuF5C-25" style="edgeStyle=orthogonalEdgeStyle;rounded=0;orthogonalLoop=1;jettySize=auto;html=1;entryX=1.017;entryY=0.423;entryDx=0;entryDy=0;entryPerimeter=0;" parent="1" source="Qom0i0TMoexOEmFyuF5C-11" target="Qom0i0TMoexOEmFyuF5C-13" edge="1">
          <mxGeometry relative="1" as="geometry" />
        </mxCell>
        <mxCell id="OALr1In9JxHl_P9QOc-F-1" value="waitForEnter" style="rounded=1;whiteSpace=wrap;html=1;" parent="1" vertex="1">
          <mxGeometry x="-25" y="76" width="130" height="50" as="geometry" />
        </mxCell>
      </root>
    </mxGraphModel>
  </diagram>
</mxfile>
